<?xml version="1.0" encoding="UTF-8"?>
<svg id="Logo" xmlns="http://www.w3.org/2000/svg" width="8in" height="8in" viewBox="0 0 576 576">
  <defs>
    <style>
      .cls-1 {
        fill: #ffd685;
      }

      .cls-2 {
        fill: #ce8b2a;
      }

      .cls-3, .cls-4 {
        fill: none;
        stroke: #ce8b2a;
        stroke-miterlimit: 10;
        stroke-width: 5px;
      }

      .cls-4 {
        stroke-linecap: round;
      }
    </style>
  </defs>
  <circle class="cls-3" cx="288" cy="288" r="214.24"/>
  <path class="cls-4" d="m327.59,409.56c-12.47,4.07-25.78,6.27-39.59,6.27-70.49,0-127.84-57.35-127.84-127.84,0-12.75,1.88-25.08,5.37-36.71"/>
  <g>
    <path class="cls-2" d="m102.81,249.34l2.12.35c-.3,1.84-.21,3.14.27,3.89.48.76,1.3,1.23,2.45,1.42l26.6,4.36c.17-1.05.26-2.15.26-3.28,0-1.13-.15-2.25-.44-3.34-.29-1.1-.8-2.13-1.52-3.11-.72-.98-1.69-1.84-2.92-2.58l.52-1.03.48-.12,7.8,2.49-4.81,29.36-8.18-.17-.41-.27-.17-1.14c1.4-.31,2.6-.82,3.59-1.51.99-.7,1.8-1.51,2.43-2.44.62-.93,1.12-1.94,1.48-3.02.36-1.09.63-2.16.81-3.21l-26.6-4.36c-1.15-.19-2.08-.01-2.77.53-.7.54-1.2,1.79-1.52,3.73l-.43.13-1.69-.48,2.65-16.18Z"/>
    <path class="cls-2" d="m98.4,288.73l2.09-.17c.14,1.69.53,2.83,1.18,3.41.65.58,1.56.82,2.72.73l23.62-1.95c1.16-.1,2.02-.48,2.56-1.17.55-.68.75-1.87.61-3.56l2.09-.17,2.27,27.56-.4.69-7.77-1.12-.28-.38-.09-1.04c2.17-.42,3.7-1.22,4.59-2.41.89-1.2,1.25-2.84,1.07-4.93l-.23-2.79c-.14-1.66-.54-2.76-1.2-3.31-.66-.55-1.56-.77-2.69-.68l-10.56.87.54,6.58c.1,1.23.53,2.12,1.27,2.68.75.56,2.17.75,4.26.58l.17,2.09-12.01.99-.34-1.68.17-.42c1.76-.14,2.93-.55,3.51-1.22.58-.67.82-1.62.72-2.84l-.54-6.58-10.81.89c-1.13.09-1.98.44-2.55,1.04-.57.6-.8,1.61-.68,3.04l.4,4.83c.05.56.19,1.24.42,2.02.23.78.61,1.58,1.12,2.39.52.81,1.22,1.6,2.1,2.36.88.76,2.01,1.41,3.4,1.93l-.27,1.03-.43.24-7.74-1.37-2.32-28.15Z"/>
    <path class="cls-2" d="m106.46,341.38l2.04-.69c.6,1.77,1.29,2.87,2.08,3.31.78.44,1.73.47,2.83.09l25.51-8.69c-.34-1.01-.78-2.01-1.32-3.01-.53-1-1.19-1.91-1.96-2.74-.78-.83-1.71-1.5-2.8-2.03-1.1-.53-2.36-.83-3.79-.9l-.02-1.15.36-.33,8.05-1.47,9.59,28.16-7.3,3.7-.49-.04-.69-.93c1.09-.94,1.91-1.94,2.46-3.03.55-1.08.88-2.18.99-3.3.11-1.11.07-2.24-.12-3.37-.19-1.13-.46-2.2-.8-3.21l-25.51,8.69c-1.1.38-1.84.97-2.19,1.78-.36.81-.22,2.14.41,4.01l-.31.32-1.72.38-5.29-15.53Z"/>
    <path class="cls-2" d="m131.03,394.71c-1.5-2.21-2.52-4.47-3.05-6.79-.53-2.32-.59-4.59-.18-6.8.41-2.21,1.29-4.31,2.64-6.3,1.35-1.99,3.15-3.75,5.41-5.29,2.29-1.56,4.61-2.6,6.97-3.14,2.36-.54,4.65-.59,6.87-.17,2.22.42,4.32,1.3,6.3,2.64,1.98,1.33,3.72,3.1,5.22,5.31,1.5,2.2,2.51,4.47,3.03,6.8.52,2.33.56,4.61.14,6.83s-1.31,4.33-2.68,6.33c-1.36,2-3.19,3.77-5.47,5.33-2.26,1.54-4.56,2.57-6.9,3.1-2.34.53-4.62.57-6.83.14-2.21-.43-4.3-1.32-6.26-2.67-1.96-1.34-3.7-3.12-5.2-5.32Zm1.98-1.35c.98,1.43,2.17,2.48,3.58,3.13,1.41.65,2.96.95,4.63.9,1.68-.05,3.43-.43,5.27-1.14,1.84-.71,3.69-1.7,5.57-2.97,1.85-1.26,3.44-2.62,4.79-4.08,1.35-1.46,2.36-2.96,3.04-4.52.68-1.55.98-3.11.9-4.67-.08-1.56-.6-3.06-1.58-4.49-1-1.46-2.2-2.5-3.62-3.13s-2.97-.91-4.65-.83c-1.68.08-3.46.48-5.32,1.2-1.86.72-3.72,1.72-5.57,2.97-1.85,1.26-3.44,2.61-4.77,4.06-1.33,1.45-2.33,2.94-3.01,4.47-.67,1.53-.97,3.06-.89,4.6.08,1.54.62,3.04,1.61,4.5Z"/>
    <path class="cls-2" d="m179.59,443.38l-.63-37.57-14.55,18.2c-.35.44-.61.89-.78,1.33-.16.45-.18.91-.06,1.39s.42,1.01.89,1.57c.47.56,1.14,1.2,2.03,1.91l-.09.44-1.22,1.2-10.12-8.09,1.31-1.64c1.33,1.06,2.43,1.56,3.3,1.48.87-.07,1.67-.57,2.4-1.48l14.92-18.67c.64-.81.91-1.64.79-2.51-.12-.86-.84-1.83-2.17-2.89l1.31-1.64,8.79,7.02.19,31.39,11.71-14.65c.35-.44.61-.89.78-1.33.16-.44.18-.91.06-1.39-.12-.48-.41-1-.87-1.56-.45-.55-1.1-1.17-1.93-1.83l1.31-1.64,10.12,8.09-.91,1.45-.41.19c-1.41-1.12-2.54-1.64-3.39-1.56-.86.08-1.65.58-2.38,1.49l-18.33,22.93-2.07-1.66Z"/>
    <path class="cls-2" d="m219.39,464.72l.62-2.01c1.62.5,2.83.56,3.61.17.78-.39,1.34-1.14,1.69-2.25l6.98-22.65c.34-1.12.3-2.05-.13-2.81-.43-.76-1.46-1.39-3.08-1.89l.62-2.01,15.15,4.67c2.42.75,4.26,1.64,5.53,2.7,1.26,1.05,2.14,2.16,2.64,3.32.5,1.16.68,2.37.57,3.6-.12,1.24-.35,2.4-.68,3.48-.29.92-.8,1.87-1.56,2.84-.75.97-1.77,1.79-3.06,2.46-1.29.67-2.85,1.08-4.69,1.22-1.84.15-4.01-.16-6.49-.93-.45-.14-.89-.27-1.34-.41-.45-.14-.88-.31-1.31-.51l-2.74,8.89c-.17.54-.24,1.05-.23,1.52.01.47.16.91.46,1.32.29.41.76.78,1.4,1.14.64.35,1.52.7,2.63,1.05l.07.44-.69,1.57-15.96-4.91Zm15.72-13.16c.21.1.47.2.77.29.3.09.56.17.79.24,1.34.41,2.57.55,3.69.41,1.12-.14,2.12-.51,2.98-1.1.86-.59,1.6-1.36,2.23-2.32s1.13-2.04,1.5-3.25c.25-.83.39-1.67.41-2.52.02-.85-.11-1.64-.4-2.37-.28-.73-.71-1.38-1.29-1.94-.58-.56-1.33-.99-2.25-1.27-1.5-.46-2.6-.47-3.31-.03-.71.44-1.23,1.19-1.55,2.24l-3.58,11.61Z"/>
    <path class="cls-2" d="m282.75,464.97c-.19,1.86-.65,3.55-1.38,5.08-.73,1.53-1.7,2.82-2.92,3.87-1.21,1.05-2.68,1.82-4.39,2.31-1.71.49-3.64.62-5.8.4-2.16-.22-4.02-.76-5.59-1.59-1.57-.83-2.85-1.89-3.82-3.16-.97-1.27-1.66-2.74-2.06-4.39-.4-1.65-.5-3.4-.31-5.26.19-1.82.65-3.5,1.38-5.03.73-1.53,1.7-2.83,2.92-3.89,1.22-1.06,2.68-1.84,4.39-2.33,1.71-.49,3.64-.63,5.8-.4,2.16.22,4.02.75,5.59,1.59,1.57.83,2.84,1.9,3.82,3.19.97,1.29,1.66,2.76,2.05,4.41.4,1.65.5,3.39.31,5.21Zm-14.26,9.52c1.89.2,3.47-.57,4.74-2.3,1.27-1.73,2.09-4.38,2.46-7.96.37-3.51.11-6.26-.77-8.25-.88-1.98-2.27-3.08-4.16-3.27-1.89-.2-3.47.59-4.74,2.35-1.27,1.76-2.09,4.4-2.46,7.91-.34,3.58-.08,6.35.79,8.3.87,1.95,2.25,3.02,4.14,3.22Z"/>
    <path class="cls-2" d="m318.43,462.43c.18,1.86.07,3.61-.34,5.26-.41,1.65-1.1,3.11-2.08,4.38-.98,1.27-2.26,2.32-3.84,3.14-1.58.82-3.44,1.34-5.6,1.55-2.16.21-4.09.07-5.8-.44-1.71-.5-3.17-1.28-4.37-2.33-1.21-1.05-2.17-2.35-2.89-3.89-.72-1.54-1.17-3.23-1.35-5.09-.18-1.82-.06-3.56.34-5.21.41-1.65,1.1-3.11,2.08-4.4.98-1.28,2.26-2.34,3.83-3.16,1.58-.82,3.44-1.34,5.6-1.55,2.16-.21,4.09-.07,5.8.44,1.71.5,3.17,1.29,4.38,2.36,1.21,1.07,2.18,2.37,2.9,3.91s1.17,3.22,1.35,5.04Zm-12.07,12.18c1.89-.19,3.29-1.25,4.18-3.2.9-1.95,1.17-4.71.82-8.29-.34-3.52-1.15-6.16-2.41-7.93s-2.84-2.56-4.73-2.38c-1.89.19-3.29,1.27-4.18,3.25-.9,1.98-1.17,4.73-.83,8.25.38,3.58,1.2,6.24,2.44,7.97,1.24,1.74,2.81,2.51,4.7,2.33Z"/>
    <path class="cls-2" d="m328.39,472.87l-.49-1.89c1.55-.4,2.54-.98,2.96-1.73.43-.75.48-1.72.17-2.91l-7.15-27.48-4.29.19-.35-1.35,9.14-5.37.47.24,8.37,32.18c.31,1.19.83,2.01,1.57,2.46s1.93.45,3.57.03l.29.34.2,1.55-14.47,3.76Z"/>
  </g>
  <g>
    <g id="g13391">
      <path id="path295" class="cls-1" d="m344.63,235.91c-.75,1.99-1.12,3.98-1.12,6.09-.37,10.2,16.05,52.49,26.12,54.36h.25c.5,0,.87-.25,1-.62.12-.5-.12-.87-.62-1.12-7.46-2.74-21.64-42.41-21.27-52.61,0-1.49.12-2.99.37-4.35.25-1.99.62-3.73,1.12-5.35.62-1.99,1.49-3.48,2.61-4.73.37-.37.25-.87-.12-1.24-.25-.12-.5-.25-.75-.25s-.5.12-.62.25c-1.24,1-2.49,2.11-3.48,3.36,0,0-.75.75-1.99,2.74-1,1.99-1.49,3.48-1.49,3.48"/>
      <path id="path299" class="cls-1" d="m378.96,265.27c3.86,22.64,6.97,51.62,1.12,67.54-.12.37-.5.62-1,.62h-.25c-.5-.12-.87-.62-.75-1,4.48-20.27-2.61-52.74-8.33-75.38-.5-1.87-.87-3.61-1.37-5.47l-.37-1.49c-1.24-4.98-2.61-9.7-3.86-14.3-6.59-24.01-15.3-43.91-25.75-58.96-2.49.87-4.35,1.99-5.72,3.48-.25.25-.5.37-.75.37s-.37,0-.62-.12c-.5-.25-.5-.87-.25-1.24,1.24-1.87,3.23-3.48,5.72-4.73-17.41-24.01-34.58-27.86-39.55-28.48-1-.12-2.11-.25-3.11-.25-1.12,0-1.24-.75-1.24-1,0-.12,0-.87,1.24-.87.5,0,1.74.12,3.48.25,18.04,1.74,33.71,11.07,46.89,27.86,2.36-.5,4.85-.75,7.34-.75,5.35,0,10.57,1,15.3,2.99,1.24.5,2.36,1,3.36,1.62l-1-4.1c-.62-2.61-3.73-5.35-6.72-5.97l-11.19-2.24c-2.11-.37-3.48-.75-3.36-1.74s1.49-1,2.49-1h1.24l14.18.62c3.98.12,7.34,3.11,7.46,6.72l.25,7.46c0,1.12,0,1.74-.12,2.11,7.59,5.47,10.95,13.31,10.82,19.4,0,.5-.37.87-1,.87h-.12c-.5,0-1-.37-1-.75-1.12-6.72-8.71-14.18-18.91-18.28-5.47-2.24-11.19-3.48-16.54-3.48,13.18,18.28,20.77,40.67,24.88,56.47.62,2.61,1.74,6.97,2.86,12.44l1,4.35c.5,2.36,1,4.85,1.49,7.34l1.74,9.08Z"/>
      <path id="path303" class="cls-1" d="m376.97,206.81c-.62,0-1.12.37-1.24.62-.37.75,0,1.49,2.86,3.86l22.64,17.04c2.24,1.87,3.73,2.86,5.6,2.86h0c1.49,0,2.99-.62,5.22-1.74l15.42-5.47c3.48-1.74,3.98-2.49,3.73-3.36-.12-.37-.5-1-1.87-1-.75,0-1.99.12-3.61.5l-7.09,1.62c-2.86.62-5.97,1-8.58,1-3.36,0-5.97-.5-7.84-1.49l-21.15-12.94c-2.74-1.37-3.61-1.49-4.1-1.49"/>
    </g>
    <g id="g273">
      <g id="g13384">
        <path id="path271" class="cls-2" d="m348.23,229.71c-17.98-15.27-34.66-27.95-44.47-34.87-12.42-8.65-23.87-14.12-34.33-15.85-.98-2.59-2.94-5.19-4.9-8.07-.65-.86-1.31-1.73-1.63-2.59-6.21-9.51-13.08-14.41-23.54-17-8.83-4.03-18.31-6.34-26.81-6.34s-16.02,2.31-21.25,6.92c-2.94,2.88-5.23,6.05-6.87,9.51-.33.58,0,.86.65,1.15h.33c.33,0,.65-.29.98-.58.98-2.31,2.62-4.32,4.58-6.05,1.63-1.44,3.27-2.31,4.9-3.17-4.9,4.03-8.17,9.51-9.15,15.27-.65,3.75-.33,7.78.98,11.53,0,.29.65.58.98.58h.33c.65,0,.98-.58.65-1.15-.65-2.59-.65-5.19-.33-7.49.33-2.59,1.31-4.9,2.94-6.63-2.62,7.2-1.31,15.56,3.92,23.05,2.62,3.75,5.56,6.92,9.48,9.8.33,0,.33.29.65.29s.65,0,.65-.29c.33-.29.33-.86,0-1.15-2.62-2.02-4.58-4.32-6.21-6.63-4.25-6.05-5.23-12.97-2.62-19.02,2.29-6.05,7.85-10.37,15.37-12.97,3.6-1.15,7.52-1.73,11.44-1.73,13.41,0,26.16,6.05,32.7,15.85,1.31,2.02,2.62,4.32,3.27,6.63-22.56.29-32.04,19.31-32.37,21.61,0,.58.33.86.98,1.15h.33c.33,0,.98-.29.98-.58,0,0,6.54-11.53,25.18-11.53,12.75,0,27.79,5.48,44.79,16.14,11.12,6.05,28.12,18.15,43.81,30.55l3.6-6.34Z"/>
        <path id="path279" class="cls-2" d="m378.96,265.15c20.93,19.02,32.7,34,34,42.94,0,.58.65.86.98.86h0c.65,0,.98-.58.98-.86-.65-10.66-13.41-27.95-37.93-51.58l1.96,8.65Z"/>
        <path id="path283" class="cls-2" d="m375.69,249.02l24.2,27.66c.98,1.15,2.29,2.02,3.27,2.02.65,0,2.62-.29,2.62-3.75,0-3.17.33-6.92.65-8.93,3.27,8.36,15.04,44.38,15.04,44.67.65,2.02,1.96,3.17,3.92,3.17.98,0,2.29-.29,3.6-2.02,1.31-1.44,2.94-3.17,3.92-4.32-.65,6.92-1.63,27.09-1.63,29.68,0,.58.33.86.98.86h0c.65,0,.98-.29.98-.86.98-5.19,9.48-43.23,9.48-43.51.65-2.02,0-2.88-.33-3.17s-.65-.58-.98-.58c-.98,0-1.63.58-2.94,2.02-3.92,5.48-9.15,11.24-10.79,11.81v-.29c-.33-5.76-20.27-46.4-21.25-48.12s-1.63-2.59-2.62-2.59c-1.96,0-1.96,2.59-1.96,3.46l-.33,6.63c0,1.15-.33,2.02-1.31,2.02-.65,0-1.31-.29-1.96-.86l-21.58-18.15c-1.31-1.15-1.96-1.44-2.29-1.73l1.31,4.9Z"/>
        <path id="path287" class="cls-2" d="m268.78,232.02c2.29-1.44,3.6-2.31,3.92-2.59l.33-.29c.33-.58.98-1.44.65-2.02-.33-.29-.65-.58-.98-.58s-.98.29-1.63.58c-1.31.58-15.37,6.92-25.18,8.36h-.65c-14.71,0-108.55-51.87-109.53-52.45q-1.31-.58-1.63-.58c-.33,0-.98.29-.98.58-.33.58.33,1.15,1.31,1.73,3.92,2.31,92.53,57.63,109.21,57.63h.98c6.21-.86,13.41-4.03,18.96-7.2,0,.58.33.86.65,1.15h0c.65.58,76.18,44.38,102.67,133.42,5.89,19.88,12.42,57.92,12.75,60.23,0,1.15,0,1.44.33,1.73s.33.29.65.29h0c.98,0,.98-.58,1.31-2.02h0c0-.29-.33-39.19-8.83-69.74-19.29-64.55-102.01-126.51-104.3-128.24"/>
        <path id="path291" class="cls-2" d="m420.16,332.59c-1.31,0-1.63,1.15-1.63,3.46l-.33,1.44c-.33,2.59,0,4.32.65,4.9.33.29.65.29.98.29s.65,0,.98-.58c1.31-1.15,1.31-4.61.98-7.2,0-.86-.33-2.31-1.63-2.31"/>
        <path id="path275" class="cls-2" d="m405.77,315.87c-.65,0-1.31.29-2.29.58-2.94,1.15-5.56,4.61-5.56,7.78l-.33,14.7c0,2.59-.98,6.34-1.96,8.65-.98,2.02-3.6,5.19-5.89,6.34l-.33.29c-1.31.86-2.29,2.02-2.62,3.46s.33,2.88,1.63,4.03l3.92,3.46c1.96,1.73,4.9,2.59,7.85,2.59.98,0,1.63,0,2.29-.29h.33c1.63-.29,3.27-.86,2.94-2.02s-1.63-1.15-2.62-1.15h-.33c-2.29,0-5.56-1.15-6.87-2.59s-1.31-3.46,0-4.9c1.63-1.73,3.6-5.19,4.58-7.78s1.96-6.92,1.96-9.51l.98-11.81c.33-2.31,1.63-6.05,3.27-8.07.98-1.15,1.31-2.31.98-2.88-.98-.58-1.31-.86-1.96-.86"/>
      </g>
    </g>
  </g>
</svg>