<?xml version="1.0" standalone="no"?>
<!DOCTYPE svg PUBLIC "-//W3C//DTD SVG 20010904//EN"
 "http://www.w3.org/TR/2001/REC-SVG-20010904/DTD/svg10.dtd">
<svg version="1.0" xmlns="http://www.w3.org/2000/svg"
 width="193.000000pt" height="193.000000pt" viewBox="0 0 193.000000 193.000000"
 preserveAspectRatio="xMidYMid meet">
<metadata>
Created by potrace 1.14, written by Peter Selinger 2001-2017
</metadata>
<g transform="translate(0.000000,193.000000) scale(0.100000,-0.100000)"
fill="#000000" stroke="none">
<path d="M3 970 c0 -868 2 -960 16 -961 9 0 441 -1 961 -1 l945 -1 0 959 0
959 -961 3 -961 2 0 -960z m1624 808 c16 -27 12 -56 -12 -92 -14 -20 -25 -45
-25 -56 0 -51 -39 -100 -100 -126 -19 -9 -75 -19 -123 -23 -83 -6 -152 2 -274
35 l-21 6 1 -522 2 -522 31 -27 c26 -21 30 -30 23 -48 -9 -25 -46 -38 -84 -31
-22 5 -26 0 -35 -33 -11 -39 -44 -79 -66 -79 -6 0 -19 -11 -28 -25 -59 -90
-162 -118 -196 -54 -17 31 2 69 35 69 18 0 28 -7 35 -26 6 -14 8 -29 5 -34
-13 -21 28 -16 55 6 63 54 64 60 68 765 l3 636 -33 20 c-167 97 -328 89 -430
-22 -65 -70 -86 -177 -49 -259 53 -122 231 -137 284 -24 19 42 26 97 16 126
-10 26 -24 28 -45 7 -20 -20 -30 -19 -53 4 -37 37 -1 84 55 73 29 -5 59 -37
78 -82 12 -31 14 -74 7 -207 -2 -22 -53 -74 -95 -95 -50 -26 -143 -27 -198 -4
-76 33 -147 117 -163 196 -31 144 46 286 191 356 65 31 88 37 167 41 104 6
158 -4 357 -67 199 -62 235 -70 325 -71 74 0 153 20 200 52 43 29 51 52 31 81
-20 28 -20 33 0 52 19 19 50 21 61 4z"/>
</g>
</svg>
